<?xml version="1.0" encoding="UTF-8"?>
<svg id="line" xmlns="http://www.w3.org/2000/svg" version="1.1" viewBox="0 0 841.89 595.28">
  <!-- Generator: Adobe Illustrator 30.0.0, SVG Export Plug-In . SVG Version: 2.1.1 Build 123)  -->
  <defs>
    <style>
      .st0, .st1, .st2 {
        fill: #fff;
      }

      .st1 {
        font-family: FranklinGothic-Heavy, 'Franklin Gothic Heavy';
        font-size: 87.43px;
        font-weight: 800;
      }

      .st2 {
        stroke: #fff;
        stroke-miterlimit: 10;
        stroke-width: 4.5px;
      }
    </style>
  </defs>
  <line class="st2" x1="276.83" y1="185" x2="276.83" y2="395.07"/>
  <g id="Shinystar_stickers">
    <text class="st1" transform="translate(300.33 296.77) scale(1.07 1)"><tspan x="0" y="0">SHINYSTAR</tspan></text>
    <g>
      <path class="st0" d="M358.6,346.11c1.78.98,4.37,1.76,7.1,1.76,4.07,0,6.46-1.88,6.46-4.64,0-2.52-1.67-4.01-5.82-5.39-5.02-1.58-8.14-3.91-8.14-7.72,0-4.24,3.98-7.38,9.98-7.38,3.13,0,5.45.64,6.79,1.32l-1.11,2.88c-.98-.51-3.04-1.29-5.81-1.29-4.23,0-5.83,2.22-5.83,4.07,0,2.53,1.87,3.77,6.12,5.23,5.22,1.81,7.85,4.03,7.85,8.02s-3.48,7.85-10.77,7.85c-2.98,0-6.22-.79-7.86-1.78l1.05-2.93Z"/>
      <path class="st0" d="M392.07,326.14h-9.38v-2.97h22.79v2.97h-9.42v24.25h-4v-24.25Z"/>
      <path class="st0" d="M417.46,323.17v27.22h-4v-27.22h4Z"/>
      <path class="st0" d="M450.46,349.52c-1.44.64-4.38,1.3-8.14,1.3-8.67,0-15.17-4.85-15.17-13.79s6.51-14.28,16.07-14.28c3.8,0,6.26.71,7.3,1.2l-.98,2.86c-1.5-.63-3.63-1.12-6.19-1.12-7.23,0-12.01,4.08-12.01,11.23,0,6.66,4.34,10.92,11.8,10.92,2.45,0,4.91-.43,6.52-1.12l.8,2.8Z"/>
      <path class="st0" d="M460,323.17h3.97v13.12h.14c.81-1.06,1.66-2.01,2.43-2.89l9.4-10.23h4.92l-11.13,11.57,12.01,15.65h-4.71l-10.11-13.35-2.95,2.98v10.37h-3.97v-27.22Z"/>
      <path class="st0" d="M505.25,337.63h-11.93v9.83h13.35v2.93h-17.34v-27.22h16.64v2.93h-12.64v8.62h11.93v2.91Z"/>
      <path class="st0" d="M516.35,323.55c2.02-.36,4.91-.58,7.65-.58,4.22,0,7,.71,8.92,2.24,1.52,1.19,2.42,3.05,2.42,5.17,0,3.58-2.58,5.95-5.8,6.94v.1c2.35.73,3.77,2.69,4.51,5.51,1.01,3.8,1.74,6.41,2.37,7.47h-4.12c-.48-.79-1.18-3.11-2.02-6.52-.91-3.73-2.58-5.17-6.18-5.28h-3.76v11.8h-3.97v-26.85ZM520.33,335.94h4.06c4.25,0,6.95-2.05,6.95-5.17,0-3.54-2.88-5.07-7.08-5.08-1.93,0-3.26.16-3.94.31v9.94Z"/>
      <path class="st0" d="M544.98,346.11c1.78.98,4.37,1.76,7.1,1.76,4.07,0,6.46-1.88,6.46-4.64,0-2.52-1.67-4.01-5.82-5.39-5.02-1.58-8.14-3.91-8.14-7.72,0-4.24,3.98-7.38,9.98-7.38,3.12,0,5.45.64,6.79,1.32l-1.11,2.88c-.98-.51-3.04-1.29-5.81-1.29-4.23,0-5.83,2.22-5.83,4.07,0,2.53,1.87,3.77,6.12,5.23,5.22,1.81,7.85,4.03,7.85,8.02s-3.48,7.85-10.77,7.85c-2.98,0-6.22-.79-7.86-1.78l1.05-2.93Z"/>
    </g>
  </g>
  <g id="star">
    <g>
      <path class="st0" d="M231.15,261.3c-26.72,9.49-53.43,18.99-80.15,28.49-2.8,29.26-5.6,58.53-8.4,87.79-11.97-23.84-23.94-47.68-35.9-71.52-21,6.78-42,13.56-62.99,20.34,7.63-8.36,15.25-17.44,22.88-26.5l.16-.2,22.72-26.31c-5.83-11.48-11.67-22.95-17.5-34.43l22.74,3.16c7.49,1.15,14.97,2.29,22.74,3.16l7.43-7.88,9.36-9.91c1.96-2.07,3.92-4.14,5.87-6.21,1.7-1.79,3.39-3.59,5.08-5.38,4.23-4.47,8.41-8.9,12.48-13.23-.94,15.98-1.89,31.96-2.83,47.94,25.44,3.56,50.87,7.12,76.31,10.69ZM138.06,276.33c11.24-4.24,22.49-8.48,33.73-12.72-10.45-1.98-20.89-3.96-31.34-5.94,1.03-8.72,2.06-17.43,3.1-26.15-7.21,7.58-14.41,15.16-21.61,22.74-1.07-.15-2.14-.3-3.19-.46l-6.26-.91-3.09-.45c-.49-.08-.98-.15-1.47-.22l-1.63-.24c-2.07-.3-4.15-.61-6.26-.91l-3.19-.46c3.58,6.46,7.17,12.92,10.76,19.38-7.18,8.26-14.35,16.52-21.52,24.78,10.21-3.68,20.42-7.36,30.63-11.05l8.13,13.69c2.75,4.69,5.49,9.39,8.13,13.69.92-5.54,1.73-11.46,2.54-17.38v-.07s2.54-17.32,2.54-17.32Z"/>
      <path class="st0" d="M145.19,215.9l12.48-13.23c-4.07,4.33-8.25,8.76-12.48,13.23Z"/>
      <path class="st0" d="M140.11,221.28l5.08-5.38c-1.69,1.79-3.38,3.59-5.08,5.38Z"/>
      <path class="st0" d="M138.06,276.33l-2.53,17.32c.81-5.91,1.61-11.81,2.53-17.32Z"/>
      <path class="st0" d="M132.98,311.1l2.54-17.38c-.81,5.92-1.62,11.84-2.54,17.38Z"/>
      <path class="st0" d="M124.85,297.41l8.13,13.69c-2.64-4.3-5.38-9-8.13-13.69Z"/>
      <path class="st0" d="M124.88,237.4l-7.43,7.88c2.44-2.6,4.92-5.23,7.43-7.88Z"/>
      <path class="st0" d="M124.85,297.41l-8.13-13.69c2.64,4.3,5.39,9,8.13,13.69Z"/>
      <path class="st0" d="M112.49,252.89l6.26.91c-2.11-.3-4.19-.61-6.26-.91Z"/>
      <path class="st0" d="M94.71,242.12l22.74,3.16c-7.77-.87-15.25-2.01-22.74-3.16Z"/>
      <path class="st0" d="M106.3,251.98l-6.26-.91c2.11.3,4.19.61,6.26.91Z"/>
      <path class="st0" d="M94.71,242.12l-22.74-3.16c7.77.88,15.25,2.02,22.74,3.16Z"/>
      <path class="st0" d="M89.47,273.39l-22.72,26.31c7.58-9.01,15.15-18,22.72-26.31Z"/>
      <path class="st0" d="M43.71,326.4l22.88-26.5c-7.63,9.06-15.25,18.14-22.88,26.5Z"/>
    </g>
  </g>
</svg>