<?xml version="1.0" encoding="UTF-8"?>
<svg xmlns="http://www.w3.org/2000/svg" version="1.1" viewBox="0 0 841.89 595.28">
  <!-- Generator: Adobe Illustrator 30.0.0, SVG Export Plug-In . SVG Version: 2.1.1 Build 123)  -->
  <defs>
    <style>
      .st0 {
        fill: #fff;
      }

      .st1 {
        fill: #2b3343;
        font-family: FranklinGothic-Heavy, 'Franklin Gothic Heavy';
        font-size: 92.17px;
        font-weight: 800;
      }

      .st2 {
        fill: #243143;
      }

      .st3 {
        stroke: #243142;
        stroke-miterlimit: 10;
        stroke-width: 4.5px;
      }

      .st3, .st4 {
        fill: #243142;
      }
    </style>
  </defs>
  <g id="line">
    <g id="Shinystar_stickers">
      <text class="st1" transform="translate(300.33 292.38) scale(1.02 1)"><tspan x="0" y="0">SHINYSTAR</tspan></text>
      <g>
        <path class="st4" d="M358.6,344.4c1.78,1.04,4.37,1.86,7.1,1.86,4.07,0,6.46-1.98,6.46-4.89,0-2.66-1.67-4.23-5.82-5.68-5.02-1.66-8.14-4.13-8.14-8.14,0-4.47,3.98-7.78,9.98-7.78,3.13,0,5.45.68,6.79,1.39l-1.11,3.04c-.98-.54-3.04-1.36-5.81-1.36-4.23,0-5.83,2.34-5.83,4.29,0,2.66,1.87,3.98,6.12,5.51,5.22,1.91,7.85,4.25,7.85,8.45s-3.48,8.28-10.77,8.28c-2.98,0-6.22-.84-7.86-1.87l1.05-3.09Z"/>
        <path class="st4" d="M392.07,323.35h-9.38v-3.13h22.79v3.13h-9.42v25.57h-4v-25.57Z"/>
        <path class="st4" d="M417.46,320.22v28.7h-4v-28.7h4Z"/>
        <path class="st4" d="M450.46,348c-1.44.67-4.38,1.37-8.14,1.37-8.67,0-15.17-5.12-15.17-14.54s6.51-15.06,16.07-15.06c3.8,0,6.26.75,7.3,1.26l-.98,3.02c-1.5-.66-3.63-1.18-6.19-1.18-7.23,0-12.01,4.31-12.01,11.84,0,7.02,4.34,11.51,11.8,11.51,2.45,0,4.91-.46,6.52-1.18l.8,2.96Z"/>
        <path class="st4" d="M460,320.22h3.97v13.84h.14c.81-1.11,1.66-2.11,2.43-3.05l9.4-10.79h4.92l-11.13,12.2,12.01,16.5h-4.71l-10.11-14.08-2.95,3.15v10.93h-3.97v-28.7Z"/>
        <path class="st4" d="M505.25,335.46h-11.93v10.37h13.35v3.09h-17.34v-28.7h16.64v3.09h-12.64v9.09h11.93v3.07Z"/>
        <path class="st4" d="M516.35,320.61c2.02-.38,4.91-.62,7.65-.62,4.22,0,7,.75,8.92,2.36,1.52,1.26,2.42,3.21,2.42,5.46,0,3.77-2.58,6.28-5.8,7.31v.1c2.35.77,3.77,2.84,4.51,5.81,1.01,4.01,1.74,6.76,2.37,7.88h-4.12c-.48-.83-1.18-3.28-2.02-6.87-.91-3.93-2.58-5.46-6.18-5.57h-3.76v12.44h-3.97v-28.31ZM520.33,333.68h4.06c4.25,0,6.95-2.16,6.95-5.45,0-3.73-2.88-5.35-7.08-5.35-1.93,0-3.26.16-3.94.33v10.48Z"/>
        <path class="st4" d="M544.98,344.4c1.78,1.04,4.37,1.86,7.1,1.86,4.07,0,6.46-1.98,6.46-4.89,0-2.66-1.67-4.23-5.82-5.68-5.02-1.66-8.14-4.13-8.14-8.14,0-4.47,3.98-7.78,9.98-7.78,3.12,0,5.45.68,6.79,1.39l-1.11,3.04c-.98-.54-3.04-1.36-5.81-1.36-4.23,0-5.83,2.34-5.83,4.29,0,2.66,1.87,3.98,6.12,5.51,5.22,1.91,7.85,4.25,7.85,8.45s-3.48,8.28-10.77,8.28c-2.98,0-6.22-.84-7.86-1.87l1.05-3.09Z"/>
      </g>
    </g>
    <g id="star">
      <g>
        <path class="st2" d="M231.15,254.99c-26.72,10-53.43,20.02-80.15,30.04-2.8,30.85-5.6,61.71-8.4,92.55-11.97-25.13-23.94-50.27-35.9-75.4-21,7.15-42,14.3-62.99,21.44,7.63-8.81,15.25-18.39,22.88-27.94l.16-.21,22.72-27.74c-5.83-12.1-11.67-24.2-17.5-36.3l22.74,3.33c7.49,1.21,14.97,2.41,22.74,3.33l7.43-8.31,9.36-10.45c1.96-2.18,3.92-4.36,5.87-6.55,1.7-1.89,3.39-3.78,5.08-5.67,4.23-4.71,8.41-9.38,12.48-13.95-.94,16.85-1.89,33.69-2.83,50.54,25.44,3.75,50.87,7.51,76.31,11.27ZM138.06,270.84c11.24-4.47,22.49-8.94,33.73-13.41-10.45-2.09-20.89-4.17-31.34-6.26,1.03-9.19,2.06-18.38,3.1-27.57-7.21,7.99-14.41,15.98-21.61,23.97-1.07-.16-2.14-.32-3.19-.48l-6.26-.96-3.09-.47c-.49-.08-.98-.16-1.47-.23l-1.63-.25c-2.07-.32-4.15-.64-6.26-.96l-3.19-.48c3.58,6.81,7.17,13.62,10.76,20.43-7.18,8.71-14.35,17.42-21.52,26.12,10.21-3.88,20.42-7.76,30.63-11.65l8.13,14.43c2.75,4.94,5.49,9.9,8.13,14.43.92-5.84,1.73-12.08,2.54-18.32v-.07s2.54-18.26,2.54-18.26Z"/>
        <path class="st0" d="M145.19,207.13l12.48-13.95c-4.07,4.56-8.25,9.24-12.48,13.95Z"/>
        <path class="st0" d="M140.11,212.8l5.08-5.67c-1.69,1.89-3.38,3.78-5.08,5.67Z"/>
        <path class="st0" d="M138.06,270.84l-2.53,18.26c.81-6.23,1.61-12.45,2.53-18.26Z"/>
        <path class="st0" d="M132.98,307.49l2.54-18.32c-.81,6.24-1.62,12.48-2.54,18.32Z"/>
        <path class="st0" d="M124.85,293.06l8.13,14.43c-2.64-4.53-5.38-9.49-8.13-14.43Z"/>
        <path class="st0" d="M124.88,229.79l-7.43,8.31c2.44-2.74,4.92-5.51,7.43-8.31Z"/>
        <path class="st0" d="M124.85,293.06l-8.13-14.43c2.64,4.53,5.39,9.49,8.13,14.43Z"/>
        <path class="st0" d="M112.49,246.12l6.26.96c-2.11-.32-4.19-.64-6.26-.96Z"/>
        <path class="st0" d="M94.71,234.77l22.74,3.33c-7.77-.92-15.25-2.12-22.74-3.33Z"/>
        <path class="st0" d="M106.3,245.16l-6.26-.96c2.11.32,4.19.64,6.26.96Z"/>
        <path class="st0" d="M94.71,234.77l-22.74-3.33c7.77.93,15.25,2.13,22.74,3.33Z"/>
        <path class="st0" d="M89.47,267.74l-22.72,27.74c7.58-9.5,15.15-18.98,22.72-27.74Z"/>
        <path class="st0" d="M43.71,323.62l22.88-27.94c-7.63,9.55-15.25,19.12-22.88,27.94Z"/>
      </g>
    </g>
  </g>
  <g id="line1" data-name="line">
    <line class="st3" x1="262.05" y1="200.25" x2="263" y2="368.01"/>
  </g>
</svg>