<?xml version="1.0" encoding="UTF-8"?>
<svg id="Layer_1" xmlns="http://www.w3.org/2000/svg" version="1.1" viewBox="0 0 595.28 841.89">
  <!-- Generator: Adobe Illustrator 30.0.0, SVG Export Plug-In . SVG Version: 2.1.1 Build 123)  -->
  <defs>
    <style>
      .st0 {
        fill: #243243;
      }

      .st1 {
        fill: #293646;
      }

      .st2 {
        fill: #bbc6ce;
      }

      .st3 {
        fill: #ecf6fb;
      }

      .st4 {
        fill: #273343;
      }

      .st5 {
        fill: #243143;
      }

      .st6 {
        fill: #eaf3f7;
      }

      .st7 {
        fill: #f1f9fc;
      }

      .st8 {
        fill: #677481;
      }

      .st9 {
        fill: #bfcad1;
      }

      .st10 {
        fill: #ebf5fa;
      }

      .st11 {
        fill: #878c98;
      }

      .st12 {
        fill: #384452;
      }

      .st13 {
        fill: #edf6fa;
      }

      .st14 {
        fill: #bec9d1;
      }

      .st15 {
        fill: #d1dde4;
      }

      .st16 {
        fill: #b8c2cb;
      }

      .st17 {
        fill: #ecf7fd;
      }

      .st18 {
        fill: #838994;
      }

      .st19 {
        fill: #c1cbd3;
      }

      .st20 {
        fill: #eaf1f5;
      }

      .st21 {
        fill: #c9d4da;
      }

      .st22 {
        fill: #828e99;
      }
    </style>
  </defs>
  <path class="st5" d="M284.53,106.28c9.23-.97,18.53-.97,27.76.03,158.04,7.95,280.27,144.15,273.92,305.23-.9,6.61-1.39,13.27-1.46,19.99-.59,5.51-1.33,11.01-2.23,16.48l-2.4,12.92c-31.17,149.18-169.21,249.25-317.77,230.36C113.81,672.41,4.15,540.84,9.93,388.43,15.7,236.01,134.99,113.45,284.53,106.28Z"/>
  <path class="st22" d="M312.3,106.32c-9.25-.47-18.51-.48-27.76-.03,8.29-1.5,19.47-1.5,27.76.03Z"/>
  <path class="st18" d="M584.76,431.53c.76-6.37-1.36-14.27,1.46-19.99-.26,6.68-.75,13.34-1.46,19.99Z"/>
  <path class="st11" d="M580.13,460.94l2.4-12.92c-.71,4.33-1.51,8.63-2.4,12.92Z"/>
  <g>
    <ellipse class="st7" cx="298.22" cy="398.78" rx="253.85" ry="258.63"/>
    <ellipse class="st5" cx="298.19" cy="399.44" rx="245.6" ry="250.23"/>
    <g>
      <path class="st10" d="M221.03,411.54c2.96.61,10.41-.98,12.47.25,2.63,1.57,11.64,21.74,16.4,24.47v-22.95c0-2.58,9.39-1.68,11.55-1.77v45.89c-3.19-.49-8.91,1.02-11.54-.59-3.91-2.4-11.89-21.75-17.33-25.29v25.89h-11.55v-45.89Z"/>
      <path class="st3" d="M155.19,411.54c19.97-4.49,5.76,13.08,11.48,17.14,1.32.94,13.89.91,15.16,0,2.35-1.68.51-13.62,1.08-17.14h10.4v45.9c-2.72-.38-9.46,1.09-11.06-1.14-.82-1.14,2.7-13.79-.41-16-1.58-1.12-15.14-1.45-16.08,1.41-3,9.22,8.69,17.9-10.56,15.73v-45.89Z"/>
      <path class="st3" d="M125.74,422.13c-1.64.46-2.35,2.44-.56,4.1,5.78,5.39,25.74,3.35,24.03,18.53-1.56,13.83-20.08,13.77-30.46,12.74-7.09-.71-8.7-8.67-5.19-11.35,1.22-.93,19.37,2.8,23.63-.39,5.76-4.3-12.17-7.39-14-8.1-16.98-6.55-11.5-25.41,6.14-27.18,2.64-.27,16.2.6,17.27,2.14,1.38,1.97.09,7.98.49,10.66-1.25.45-2.52-1.17-2.88-1.17-4.3,0-15.33-.88-18.48,0Z"/>
      <path class="st13" d="M333.64,446.84c.2-.06,2.86-2.73,2.87-2.94.07-5.36-24.96-3.33-25.44-18.87-.32-10.45,10.33-14.75,19.11-14.77,2.09,0,14.91,1.79,15.42,2.63.63,1.03.39,8.02-.37,9.3l-20.83-.05c-1.51.07-3.26,1.28-2.89,2.92.98,4.29,23.01,3.18,25.14,15.6,2.99,17.52-17.33,17.66-29.23,16.83-9.43-.66-5.78-3.67-6.3-11.81,1.61-.7,3.45,1.17,4.04,1.17,4.22,0,15.47.87,18.48,0Z"/>
      <path class="st10" d="M268.39,411.54h10.4c-4.19,25.28,21.47,25.38,17.31,0,2.67.42,8.49-.89,10.47.52,3.39,2.41-.13,17.51-2.55,21.09-2.23,3.29-10.13,6.8-10.28,7.43-2.32,9.84,6.56,19.39-11.51,16.87-.84-.86,1.2-13.54-.56-16.5-.89-1.49-6.5-3.07-8.73-5.22-.97-.94-4.56-6.43-4.56-7.12v-17.06Z"/>
      <path class="st6" d="M388.51,411.54c-.3,2.57.96,8.62-1.08,10.08-2.15,1.52-12.78-.88-12.78,2.28v33.54h-10.4v-33.54c0-3.16-10.63-.75-12.78-2.28s-.78-7.51-1.08-10.08h38.12Z"/>
      <path class="st20" d="M212.95,457.43c-2.74-.37-9.57,1.06-11.05-1.1-2.23-3.26.51-36.24-.34-42.86.83-2.57,11.39-3.3,11.39-1.34v45.31Z"/>
      <path class="st19" d="M296.11,496.85c.28-.98,2.22-2.15,3.46-1.76,1.17,1.35-3.06,16.22,5.19,9.39,1.03-.85,5.51-11.66,7.52-9.39,1.79,2.02-4.86,8.52-4.61,12.27.25,3.79,4.89,7.05,5.78,10.66-5.64,3.01-6.45-9.98-10.96-10.04s-2.64,7.8-2.92,10.64h-3.46c1.03-5.77-1.4-16.81,0-21.78Z"/>
      <path class="st9" d="M215.25,495.09c1.93,1.49-.12,2.14-1.71,2.34-3.35.42-10.5-1.14-10.5,4.13,0,6.39,12.78,1.41,13.35,10.68s-10.28,7.86-16.16,7.56v-3.52c3.4-.61,12.3,2.05,12.78-2.95.6-6.26-9.91-3.71-12.21-7.62-5.87-9.96,8.22-12.21,14.45-10.61Z"/>
      <path class="st14" d="M394.28,495.09c.75,4.48-5.8,1.26-9.22,2.94-3.02,1.48-3.05,5.61,0,7.05,2.96,1.4,6.92-.54,9.3,3.46,5.6,9.43-7.36,14.42-13.94,10.69-1.76-1-.64-2.43.75-2.8,3.8-1.01,12.91,2.25,11.76-4.11-.87-4.8-12.32-2.23-13.46-9.85-1.25-8.34,9.42-7.94,14.82-7.37Z"/>
      <path class="st14" d="M324.98,495.09h15.01c1.84,1.43,0,2.15-1.7,2.36-4.42.55-11.1-2.3-11.1,4.11,0,7.12,8.72,2.66,9.35,4.72,1.12,3.68-6.91.13-8.74,2.85-1.09,1.62-.33,5.11-.51,7.14l12.72.6c-.09,4.95-15.03,3.31-15.03,1.17v-22.95Z"/>
      <path class="st2" d="M284.55,495.09c.62,4.64-6.82,1.16-10.39,2.93-3.28,1.63-4.16,17.34.58,18.25,2.52.48,9.7-1.74,9.81,1.75-13.6,6.33-17.82-2.33-16.05-15.18,1.47-10.62,7.77-7.42,16.06-7.75Z"/>
      <path class="st16" d="M241.82,495.09v2.35c-1.66-.28-6.93-.04-6.93,1.77v19.42c-.99.49-3.47-1-3.47-1.77v-19.42c0-.35-5.93.26-6.92,0v-2.35s17.32,0,17.32,0Z"/>
      <path class="st8" d="M255.68,518.62c-.5-.86-1.27-.86-2.31,0-1.86-3.34-2.11-24.13.59-24.71,4.33-.93,2.93,15.02,2.89,18.25-.02,1.99.74,5.23-1.18,6.46Z"/>
      <rect class="st15" x="253.37" y="496.26" width="2.32" height="22.36"/>
      <g>
        <path class="st17" d="M314.59,231.5c-1.4,9.96-3.06,21.13-3.52,31.14-.09,1.91-.44,6.08,1.14,7.17l58.97,8.74-62.95,23.54-5.18,66.52-2.3,1.74-27.34-56.39-48.9,16.98,36.77-41.36-13.68-28.65,35.02,4.58c8.71-9.18,16.39-19.51,25.01-28.75,1.06-1.14,5.61-6.42,6.96-5.25Z"/>
        <path class="st0" d="M301.88,257.39c-1.14,6.17-2.9,12.4-2.24,18.76.68.72,16.1,1.91,18.9,2.51,1.38.3,2.75.54,2.97,2.25-4.17,2.12-21.9,6.55-23.65,9.45-2.29,3.79-2.17,22.6-2.92,23.51-2.06.46-2.28-.62-3.27-1.95-2.01-2.69-6.54-14.76-9.04-15.58-7.65.51-14.71,5.72-22.33,6.94,1.59-3.97,14.24-14.83,14.86-17.3,1.06-4.21-8.72-13.44-6.77-15.64,4.27.49,14.5,4.08,18.18,2.75,1.46-.53,9.85-11.79,11.86-13.91,1.1-1.15,1.51-2.23,3.44-1.78Z"/>
      </g>
      <g>
        <path class="st13" d="M467.63,411.54c12.35,2.24,14.61,17.46,6.4,26.57-1.53,1.69-4.26,1.07-3.47,3.38l11.5,15.93c-3.59-.61-10.99,1.17-13.85-.59-2.72-1.67-9.96-17.27-15.02-19.41v20c-2.16-.08-11.55.82-11.55-1.77v-44.13c7.82.99,18.59-1.34,25.99,0Z"/>
        <path class="st1" d="M453.18,422.12c6.37,0,19.56-2.39,14.44,8.25-1.47,3.05-11.37,3.24-13.36,1.83s-.79-7.52-1.09-10.08Z"/>
      </g>
      <g>
        <path class="st3" d="M419.51,411.73c2.04,1.3,15.41,40.06,17.51,45.69-15.56,2.41-10.12-3.02-14.41-8.25-1.5-1.82-15.77-1.93-17.35.01-4.82,5.93,1.23,10.44-14.43,8.24l16.74-44.72c1.54-1.67,10.76-1.74,11.95-.98Z"/>
        <path class="st12" d="M415.06,425.66c.41.43,2.74,11.34,2.32,11.76-9.98,1.51-7.98-3.09-4.9-10.28.54-1.26,1.11-3.02,2.57-1.49Z"/>
      </g>
      <g>
        <path class="st21" d="M351.55,496.85c.63-2.08,17.46-6.03,16.79,6.54-.3,5.67-2.5,4.25-3.51,5.79-1.72,2.62,3.91,5.87,4.06,8.84-7.97,1.61-3.43-11.19-13.88-7.64v8.25s-3.46,0-3.46,0c1.05-5.58-1.42-17.09,0-21.77Z"/>
        <path class="st4" d="M355.01,506.86c.22-2.27-.85-7.53,1.08-8.9,8.13-5.77,16.94,12.45-1.08,8.9Z"/>
      </g>
    </g>
  </g>
</svg>